<svg width="121" height="90" viewBox="0 0 121 90" fill="none" xmlns="http://www.w3.org/2000/svg">
<mask id="mask0_28_523" style="mask-type:luminance" maskUnits="userSpaceOnUse" x="0" y="0" width="121" height="90">
<path d="M120.396 0.283203H0.396484V89.2832H120.396V0.283203Z" fill="white"/>
</mask>
<g mask="url(#mask0_28_523)">
<path d="M71.0358 36.7488C70.6028 34.5856 69.675 32.4842 68.376 30.6301C67.077 28.7759 65.2832 27.1072 63.1801 25.9329C62.1286 25.3148 61.0152 24.8822 59.8399 24.5113C59.2213 24.3259 58.6646 24.2023 58.0461 24.1405C57.7368 24.0787 57.4275 24.0787 57.1183 24.0169L56.6234 23.9551H55.3244C55.0152 23.9551 54.7677 23.9551 54.4585 24.0169C53.8399 24.0787 53.2832 24.1405 52.6646 24.2023C51.4894 24.3877 50.2523 24.6967 49.1389 25.1912C46.7884 26.1183 44.6234 27.7252 43.077 29.8266C41.5306 31.928 40.6028 34.3384 40.2317 36.7488C40.0461 37.9849 39.9224 39.3447 40.1698 40.7044C40.3554 42.0641 40.8502 43.4238 41.5925 44.5981C41.9636 45.2162 42.3966 45.7106 42.8296 46.2051C43.077 46.4523 43.2626 46.6995 43.51 46.8849L43.8811 47.2558C44.0049 47.3794 44.1904 47.503 44.2523 47.5648L44.5616 47.812L44.809 47.9974L44.9945 48.121C45.242 48.3065 45.4894 48.4919 45.7987 48.6155C46.3554 48.9245 46.9121 49.2335 47.4688 49.419C48.5822 49.9134 49.7574 50.2224 50.9327 50.346C52.1079 50.5315 53.2832 50.5315 54.5203 50.4079C54.7059 50.4079 54.8296 50.346 55.0152 50.346L55.3244 50.2842L55.4481 50.2224H55.51L55.6956 50.1606L55.8193 50.0988H55.8811L56.0049 50.037L56.4378 49.9134C56.9945 49.728 57.4894 49.4808 58.0461 49.2335C59.0976 48.7391 60.1492 48.0592 61.0152 47.1322C61.8811 46.2669 62.6234 45.1544 62.9945 43.9801L63.1183 43.5474C63.1801 43.4238 63.1801 43.2384 63.242 43.053C63.3038 42.8676 63.3038 42.6822 63.3657 42.5585L63.4275 42.2495V41.7551L63.4894 41.3224V40.519C63.4894 39.4065 63.3657 38.3558 62.9945 37.3051C62.6853 36.2544 62.1286 35.2037 61.3863 34.3384C60.644 33.4731 59.6543 32.7933 58.6028 32.4224H58.1698L57.9224 32.2988H57.8605C57.7368 32.237 57.7987 32.2988 57.7368 32.2988H57.6131L57.4275 32.237C57.3038 32.237 57.1801 32.1752 57.0564 32.1752C56.5615 32.1134 56.0667 32.0516 55.5719 32.1134C53.5925 32.1752 51.7987 32.9787 50.5616 34.2766C49.943 34.8947 49.4482 35.6981 49.1389 36.5016C48.8296 37.3051 48.7677 38.1704 48.8296 38.9738C48.8296 39.1592 48.8914 39.3447 48.8914 39.5301C48.9533 39.7155 48.9533 39.9627 49.0152 40.0863L49.077 40.2717C49.1389 40.3954 49.1389 40.519 49.2007 40.5808C49.2626 40.7662 49.3863 40.9516 49.51 41.137C50.0049 41.8169 50.6234 42.2495 51.3038 42.4967C52.6028 42.9294 53.8399 42.8058 54.7677 42.3113C55.2626 42.0641 55.6337 41.7551 55.943 41.3842C56.2523 41.0134 56.376 40.5808 56.4378 40.1481C56.5615 39.3447 56.3141 38.6648 56.0049 38.2322C55.6956 37.7995 55.3244 37.6141 55.077 37.5523C54.8296 37.4905 54.7059 37.4905 54.7059 37.4905C54.7059 37.4905 54.8296 37.4905 55.077 37.6141C55.2626 37.7377 55.5719 37.9849 55.7574 38.3558C55.943 38.7266 56.0048 39.3447 55.7574 39.9009C55.51 40.4572 55.0152 40.8898 54.3347 41.137C53.6543 41.3842 52.7265 41.2606 52.0461 40.8898C51.675 40.7044 51.4275 40.3954 51.3038 40.0863C51.1801 39.8391 51.1183 39.2829 51.1801 38.7884C51.242 37.8613 51.675 36.9342 52.4791 36.378C53.2832 35.7599 54.3966 35.4509 55.51 35.5745C55.8193 35.5745 56.0667 35.6363 56.3141 35.6981C56.376 35.6981 56.4378 35.7599 56.4997 35.7599L56.6234 35.8217H56.6853H56.7471C56.809 35.8835 56.9327 35.8835 56.9945 35.9454L57.1183 36.0072C57.5512 36.2544 57.9224 36.5634 58.2317 36.996C58.7884 37.7995 59.0976 39.1592 58.9739 40.519C58.9739 40.7044 58.9121 40.8898 58.9121 41.0134L58.8502 41.2606V41.3224L58.7884 41.5079L58.7265 41.8169C58.7265 41.9405 58.6646 41.9405 58.6646 42.0023L58.6028 42.1877L58.5409 42.3113C58.2935 42.8676 57.9842 43.3002 57.4894 43.671C57.0564 44.0419 56.4378 44.4127 55.8193 44.6599C55.51 44.7836 55.1389 44.9072 54.7677 45.0308L54.4585 45.0926L54.2729 45.1544H53.9636C53.2832 45.2162 52.5409 45.1544 51.7368 44.969C50.9945 44.8454 50.2523 44.5981 49.5719 44.2891C49.2007 44.1037 48.8914 43.9801 48.5822 43.7329C48.3966 43.6711 48.2729 43.5474 48.1492 43.4238L48.0255 43.4856H47.9636L47.9018 43.4238L47.5925 43.1766C47.4688 43.1148 47.4688 43.053 47.4069 42.9912L47.2213 42.8676L46.8502 42.4967C46.6028 42.2495 46.4172 42.0023 46.2935 41.6933C45.9842 41.137 45.7987 40.5808 45.7368 39.9009C45.675 39.221 45.675 38.5412 45.7987 37.7377C46.1079 36.1308 46.7265 34.5856 47.5925 33.4113C48.5203 32.1752 49.6956 31.2481 51.1801 30.6301C51.9224 30.321 52.6646 30.0738 53.4688 29.9502C53.9018 29.8884 54.2729 29.8266 54.7059 29.7648C54.8914 29.7648 55.1389 29.7648 55.3244 29.703H55.8193C55.7574 29.703 55.8811 29.703 55.8193 29.703H56.6234C56.7471 29.703 56.9945 29.7648 57.1801 29.7648L58.2935 29.9502C59.0358 30.1356 59.778 30.3829 60.4585 30.7537C61.8811 31.4335 63.0564 32.4842 64.0461 33.7204C65.0358 34.9565 65.7162 36.378 66.1492 37.7995C66.5822 39.4065 66.7677 40.9516 66.7677 42.4967C66.7059 45.5252 65.4069 48.0592 63.3657 49.728C62.8708 50.1606 62.3141 50.5315 61.7574 50.8405C61.2007 51.1495 60.5822 51.4585 60.0255 51.644C59.3451 51.8912 58.8502 52.0766 58.2317 52.262C57.6131 52.4474 57.0564 52.5092 56.4378 52.6329C54.0873 52.9419 51.9842 52.8183 50.2523 52.5092C48.5203 52.2002 47.1595 51.8912 46.2317 51.5822C45.4894 51.3349 45.0564 51.2113 44.8708 51.1495C44.4997 50.9641 44.3141 50.8405 44.3141 50.8405C44.3141 50.8405 47.9636 56.712 57.3657 56.2176C66.5822 55.7231 69.4275 48.8627 70.0461 47.0704C70.6646 45.7724 71.0358 44.2891 71.2213 42.8058C71.5306 40.828 71.4069 38.7266 71.0358 36.7488Z" fill="#FFCD2E"/>
<path d="M63.6751 57.3292C59.4071 58.5653 54.4586 58.5653 50.1287 57.4528C49.2627 57.2056 48.3967 56.9583 47.5308 56.5875L44.6235 63.8187C49.4483 64.8076 51.6132 65.1167 56.005 65.2403C60.273 65.3021 63.3041 64.7458 69.0565 63.8187L66.5206 56.0931C65.5927 56.5875 64.6029 57.0201 63.6751 57.3292ZM67.0772 25.1903C69.304 26.9208 71.0359 28.9604 72.273 31L101.469 20.9257C98.4998 16.5993 91.6958 15.2396 87.1803 19.3187C85.9432 20.4312 85.201 21.5437 84.706 22.5944C83.7163 22.6562 82.9742 22.7799 82.4792 22.9035C82.6648 21.9764 82.7886 20.8021 82.7267 19.566C82.9123 16.9083 82.3556 13.3236 78.3968 10.9132C75.6133 9.18264 73.1391 9.30625 71.2215 10.0479L67.0772 25.1903ZM50.7473 22.1C53.4689 21.2965 56.0668 21.1729 58.4174 21.4819L65.7164 8.07014C65.3453 7.45208 64.8504 6.77222 64.2318 6.15416C62.7473 4.67083 60.0256 3.2493 56.8091 3.1875C53.4689 3.1875 51.0565 4.42361 49.5101 5.90694C49.0153 6.33958 48.6442 6.83402 48.3349 7.32847L50.7473 22.1ZM71.84 50.5924C71.2215 51.6431 70.4174 52.6937 69.4895 53.6208L79.6957 60.7285C86.2524 58.1944 94.6649 53.6208 99.1803 50.3451C99.3659 50.2215 99.4895 50.0979 99.6133 49.9743L72.8916 48.6146C72.5823 49.2944 72.2113 49.9125 71.84 50.5924ZM103.51 40.3326C103.572 37.6132 103.015 34.5229 101.407 31.4326C101.902 30.6292 102.273 29.7021 102.583 28.5278C103.139 26.4882 103.016 24.634 102.521 23.0271L74.5618 38.4785V39.3437C74.5618 40.7653 74.5618 42.0632 74.438 43.3611L103.51 40.3326ZM37.2009 39.5292C37.2009 38.8493 37.2009 38.2312 37.2627 37.6132L16.1081 22.5944C14.4998 24.634 12.273 28.2806 11.2215 33.9049C10.7266 35.8826 10.3555 38.1076 10.2318 40.6417C10.1081 43.2375 10.3555 45.4625 10.7266 47.2549L37.2009 39.5292ZM5.03596 57.0819C3.61328 58.1944 2.43803 59.7396 1.88133 61.9646C0.149366 68.8868 2.37617 73.3986 5.59267 75.9944C16.6648 84.709 28.1081 74.1403 28.1081 74.1403C28.1081 74.1403 29.3452 77.8486 35.5926 78.4667C40.9741 79.0229 42.8297 75.6854 43.0772 75.191C21.6751 71.9771 10.2937 62.8917 5.03596 57.0819ZM17.1596 19.7514L40.3555 29.0222C40.6648 28.5896 41.0359 28.1569 41.3452 27.7243C42.8916 25.9319 44.8091 24.5722 46.9741 23.5215L42.2112 9.80069C41.84 9.73889 41.4071 9.67708 40.9122 9.67708C35.9638 9.55347 34.2318 12.891 34.2318 12.891C34.2318 12.891 33.6133 8.25555 29.9019 6.64861C28.1081 5.90694 24.0875 5.16527 20.9947 6.71041C17.9638 8.25555 16.8503 10.9132 16.4174 13.0146C15.6132 16.6611 16.4174 18.7007 17.1596 19.7514ZM108.211 55.6604C101.407 63.2007 84.5205 77.3542 54.7679 76.2417C50.6235 76.0562 46.7266 75.6854 43.139 75.191C43.4483 76.1799 47.0978 87.6139 62.0668 86.934C74.4998 86.3778 76.17 75.5618 76.17 75.5618C76.17 75.5618 80.4999 83.7201 90.1494 81.3715C100.17 78.9611 99.2421 70.1847 99.4277 70.741C99.6133 71.2972 111.799 73.8931 111.737 61.9646C111.799 58.6889 110.253 56.7729 108.211 55.6604ZM21.9225 56.6493C26.1906 58.4417 29.2215 59.6778 32.0668 60.6667L42.2112 53.1264C41.5926 52.5083 41.0359 51.8285 40.5411 51.0868C40.1081 50.4687 39.7369 49.7889 39.4277 48.9854L13.572 51.5812C13.8194 51.8285 14.1287 52.0757 14.4998 52.3229C15.6132 53.1264 20.0668 55.8458 21.9225 56.6493Z" fill="#71DAFF"/>
<path d="M37.2012 39.5291L37.263 37.6132L31.0775 33.1632C27.7991 35.0791 26.1909 38.9111 26.2527 42.743L37.2012 39.5291ZM57.7991 21.3583C55.696 19.6895 52.8507 18.577 50.0053 18.0826L50.6857 22.1C50.6857 22.1 52.6651 21.4201 54.7682 21.2965C56.0053 21.2965 57.0568 21.2965 57.7991 21.3583ZM40.3558 29.084C40.3558 29.084 41.5311 27.3534 43.263 25.9319C44.995 24.5104 46.9125 23.3979 46.9125 23.3979L45.0568 17.959C44.3764 18.0208 43.7579 18.1444 43.2012 18.268C38.8713 19.3187 36.5208 23.2125 36.1496 27.3534L40.3558 29.084ZM74.6239 41.6923C74.6239 42.9902 74.4383 43.3611 74.4383 43.3611L84.0259 42.3104C84.7063 38.6638 84.2733 35.8208 83.1599 33.534L74.562 38.4166C74.562 38.4784 74.6239 40.3944 74.6239 41.6923ZM71.1599 29.3312L72.2733 31L78.7063 28.775C77.3455 27.9097 75.9228 27.2298 74.5002 26.7354C72.5826 26.0555 70.5414 26.0555 68.6239 26.55C69.5517 27.4152 70.6032 28.4659 71.1599 29.3312Z" fill="#92EAFF"/>
<path d="M112.479 55.785C114.644 55.6614 119.717 54.6725 120.397 61.0385C120.954 66.3538 115.696 68.4552 112.912 69.0114C111.985 69.1968 111.799 68.9496 112.17 68.2079C112.974 66.5392 113.531 64.0052 113.407 61.7184C113.284 59.5552 112.603 58.01 112.046 56.8357C111.675 56.0323 111.675 55.785 112.479 55.785ZM8.43819 39.0357C8.31448 37.7996 7.75778 33.2878 10.5413 26.7364C11.5929 24.2642 13.0774 23.0281 13.9434 22.1628C14.8712 21.2975 14.3764 20.6177 13.3867 20.3086C11.4692 19.7524 7.26294 19.567 4.72685 21.4829C0.211393 24.9441 -0.654588 30.7538 1.57222 35.3274C2.74747 37.7378 4.41758 38.8503 6.02582 39.592C7.38665 40.21 8.62376 40.6427 8.43819 39.0357Z" fill="#71DAFF"/>
<path d="M72.7677 0.283203L65.7162 21.5443C65.7162 21.5443 64.8502 24.511 62.6852 23.5221C60.5203 22.5332 62.1904 19.8138 62.1904 19.8138L72.7677 0.283203ZM92.1285 25.8089L77.1595 30.5679C77.1595 30.5679 74.1285 31.6804 75.6749 34.5235C77.2213 37.3665 80.4378 34.4617 80.4378 34.4617L92.1285 25.8089ZM45.1801 8.81237L49.51 19.6901C49.51 19.6901 49.7574 20.8644 48.7058 21.3589C47.6543 21.8533 46.9739 20.9263 46.9739 20.9263L45.1801 8.81237ZM19.7574 22.4714C31.6337 27.6013 31.6337 27.7249 37.077 29.5172C38.5615 30.0117 40.3553 31.7422 38.8089 33.6582C37.2625 35.5742 34.479 33.4728 34.479 33.4728L19.7574 22.4714ZM2.56152 51.3346L34.7883 42.2492C34.7883 42.2492 37.5718 41.1367 37.8811 44.1033C38.1904 47.07 35.2832 47.1936 35.2832 47.1936L2.56152 51.3346ZM112.727 44.5978L79.5718 43.9179C79.5718 43.9179 75.9842 44.1033 76.9739 46.452C77.778 48.3061 82.1698 47.5026 83.6543 47.4408C87.3656 47.379 112.727 44.5978 112.727 44.5978Z" fill="#FFCD2E"/>
<path d="M42.2113 24.0166C42.2113 24.0166 42.0258 23.9548 41.7784 23.8312C41.5309 23.7075 41.1598 23.5221 40.7268 23.2131C40.2938 22.9659 39.8608 22.6569 39.4278 22.2242C38.9948 21.8534 38.5 21.3589 38.067 20.9263C37.634 20.4319 37.2629 19.9374 36.8918 19.443C36.5206 18.9485 36.2113 18.4541 36.0258 18.0214C35.7783 17.5888 35.5928 17.218 35.5309 16.9707C35.4072 16.7235 35.3454 16.5381 35.3454 16.5381C35.3454 16.5381 35.5309 16.5999 35.7784 16.7853C36.0258 16.9089 36.3969 17.1562 36.768 17.4652C37.1392 17.7742 37.5722 18.145 38.0052 18.5159C38.2526 18.7013 38.4381 18.9485 38.6856 19.1339C38.933 19.3812 39.1186 19.6284 39.3041 19.8138C39.7371 20.2464 40.1082 20.7409 40.4794 21.2353C40.8505 21.7298 41.1598 22.1624 41.4691 22.595C41.7165 23.0277 41.9639 23.3367 42.0876 23.6457L42.2113 24.0166ZM78.6443 18.4541C78.6443 18.4541 78.5825 18.6395 78.4588 18.8867C78.3351 19.1339 78.1495 19.5666 77.9639 19.9992C77.7165 20.4319 77.4691 20.9263 77.0979 21.4207C76.7268 21.9152 76.2938 22.4096 75.8608 22.9041C75.4278 23.3985 74.933 23.8312 74.5 24.202C74.067 24.5728 73.5722 24.9437 73.201 25.1909C72.768 25.4381 72.4588 25.6853 72.1495 25.8089C71.9021 25.9325 71.7165 25.9944 71.7165 25.9944C71.7165 25.9944 71.7783 25.8089 71.9021 25.5617C72.0258 25.3145 72.2113 24.9437 72.4588 24.511C72.7062 24.0784 73.0155 23.6457 73.3866 23.1513C73.5722 22.9041 73.7577 22.6569 73.9433 22.4714C74.1289 22.2242 74.3763 22.0388 74.5619 21.7916L75.8608 20.4937C76.2938 20.1228 76.7268 19.752 77.0979 19.443C77.4691 19.1339 77.8402 18.8867 78.0876 18.7631C78.5206 18.5159 78.6443 18.4541 78.6443 18.4541ZM55.9433 18.8867C55.9433 18.8867 55.8814 18.6395 55.8814 18.145C55.8196 17.6506 55.8196 17.0325 55.7577 16.2291C55.7577 15.4256 55.7577 14.4985 55.8196 13.5096C55.8814 12.5207 55.9433 11.47 56.067 10.4194C56.1907 9.36866 56.3763 8.31796 56.5619 7.39088C56.7474 6.40199 56.9949 5.53672 57.1804 4.73324C57.366 3.99158 57.6134 3.31172 57.7371 2.87908C57.9227 2.44644 57.9845 2.19922 57.9845 2.19922C57.9845 2.19922 58.0464 2.44644 58.0464 2.94088C58.0464 3.43533 58.1083 4.05338 58.1083 4.85685C58.1083 5.66033 58.0464 6.58741 57.9845 7.51449C57.9227 8.00894 57.9227 8.50338 57.8608 8.99783C57.799 9.49227 57.7371 10.0485 57.6753 10.543C57.5515 11.5937 57.4278 12.6444 57.2423 13.5714C57.0567 14.5603 56.8711 15.4256 56.6856 16.2291C56.5 16.9707 56.3144 17.6506 56.1907 18.0832C56.067 18.6395 55.9433 18.8867 55.9433 18.8867ZM100.603 34.9562C100.603 34.9562 100.232 34.8944 99.6134 34.7707C99.3041 34.7089 98.933 34.6471 98.5 34.6471C98.3144 34.6471 98.067 34.6471 97.8815 34.7089H97.6959L97.5103 34.7707L97.3247 34.8325L97.201 34.8944C96.8299 35.0798 96.6443 35.327 96.3351 35.945C96.1495 36.2541 95.9639 36.5013 95.7165 36.8103C95.5309 37.0575 95.2835 37.3666 94.9742 37.6138C94.665 37.861 94.3557 38.17 93.9845 38.3555C93.5516 38.6027 93.0567 38.7263 92.5619 38.7263C91.5103 38.7263 90.7062 38.2937 90.0258 37.7992C89.7784 37.6138 89.4072 37.3666 89.1598 37.243L88.7887 37.0575L88.4175 36.9339C87.8608 36.7485 87.366 36.7485 86.8711 36.9339C86.6237 37.0575 86.3763 37.1194 86.1289 37.3048C86.0052 37.3666 85.8814 37.4284 85.7577 37.552C85.634 37.6756 85.5103 37.7374 85.3866 37.861C84.8918 38.2318 84.4588 38.6645 83.9021 38.9735C83.4072 39.2825 82.8505 39.5298 82.2938 39.5916C81.799 39.6534 81.366 39.5298 81.0567 39.468C80.7474 39.3444 80.5 39.2825 80.3144 39.1589C80.1289 39.0971 80.067 39.0353 80.067 39.0353H81.0567C81.366 39.0353 81.7371 38.9735 82.1083 38.8499C82.4794 38.7263 82.8505 38.4791 83.1598 38.1082C83.5309 37.7374 83.9021 37.3048 84.3351 36.8103C84.4588 36.6867 84.5825 36.5631 84.6443 36.4395C84.768 36.3159 84.9536 36.1923 85.0773 36.0687C85.3247 35.8214 85.6959 35.636 86.067 35.3888C86.8711 35.018 87.8608 34.9562 88.665 35.2034C88.8505 35.2652 89.0979 35.327 89.2835 35.3888C89.4691 35.5124 89.7165 35.5742 89.9021 35.6978C90.2732 35.8832 90.5206 36.0687 90.8918 36.3159C91.4485 36.6867 91.9433 36.9339 92.3763 36.9339C92.8093 36.9339 93.2423 36.7485 93.7371 36.3777C93.9845 36.1923 94.1701 36.0069 94.4175 35.7596C94.6031 35.5742 94.8505 35.327 95.0361 35.0798C95.1598 34.9562 95.2217 34.8325 95.3454 34.7089L95.7165 34.3381C95.9021 34.2145 96.0258 34.0909 96.2113 34.0291L96.768 33.8437L97.0155 33.7819H97.634C97.9433 33.7819 98.1907 33.8437 98.4382 33.9055C98.933 34.0291 99.2423 34.2145 99.5516 34.3999C100.294 34.7089 100.603 34.9562 100.603 34.9562ZM35.7784 39.777C35.7784 39.777 35.6546 39.8388 35.4691 39.6534C35.2835 39.5298 35.0361 39.2825 34.7268 38.9735C34.4175 38.7263 34.0464 38.3555 33.6134 38.3555C33.4897 38.3555 33.3041 38.2937 33.2423 38.3555H33.1186C33.0567 38.3555 32.9948 38.4173 32.933 38.4173C32.7474 38.4791 32.5 38.6645 32.1907 38.9117C31.8814 39.0971 31.5722 39.4062 31.1392 39.5916L31.0773 39.6534H31.0155H30.9536L30.8299 39.7152L30.5206 39.777C30.2113 39.777 29.9021 39.8388 29.6546 39.7152C29.0979 39.5916 28.6031 39.2825 28.2938 38.9735C27.9227 38.6645 27.6134 38.2937 27.3041 37.9846C26.9948 37.6756 26.7474 37.4284 26.5 37.3048C26.2526 37.1812 26.1289 37.1812 25.8814 37.3048L25.7577 37.3666C25.8196 37.3666 25.634 37.4284 25.8196 37.3048L25.7577 37.3666H25.6959L25.5722 37.4284L25.5103 37.4902C25.5103 37.552 25.4485 37.552 25.3866 37.6138L25.1392 37.861L24.8918 38.1082L24.5825 38.4173C24.4588 38.5409 24.3351 38.6027 24.2113 38.7263C24.0876 38.8499 23.9021 38.9117 23.7165 38.9735C23.5309 39.0353 23.3454 39.0353 23.1598 39.0971H22.5412C22.4175 39.0971 22.3557 39.0971 22.232 39.0353C22.0464 39.0353 21.8608 38.9117 21.6753 38.8499C20.933 38.5409 20.5619 37.861 20.3144 37.3666C20.067 36.8721 19.9433 36.4395 19.8196 36.0068C19.7577 35.8214 19.6959 35.636 19.5722 35.5124H19.5103L19.4485 35.4506L19.2629 35.2034C19.0773 34.8944 18.8299 34.6471 18.5825 34.5235C18.3351 34.3381 18.1495 34.2763 17.8402 34.2763C17.3454 34.2763 16.6649 34.6471 16.1701 35.0798C15.6134 35.5124 15.1186 35.8832 14.6237 36.2541C14.1289 36.6249 13.634 36.8721 13.201 36.9339C12.768 37.0575 12.3969 36.9339 12.2113 36.7485C12.0876 36.6867 12.0258 36.6249 12.0258 36.5631L11.9639 36.5013C11.9639 36.5013 12.0876 36.5631 12.2732 36.6249C12.4588 36.6867 12.768 36.6867 13.1392 36.5013C13.4485 36.3159 13.8196 36.0069 14.1907 35.636C14.5619 35.2034 14.9948 34.7089 15.4897 34.2145C15.9845 33.72 16.6031 33.0402 17.7165 32.8548C18.2732 32.7312 18.8918 32.8548 19.3866 33.1638C19.8814 33.411 20.2526 33.7819 20.6237 34.2145L20.8093 34.4617L20.8711 34.5235C20.933 34.5853 20.933 34.5853 20.933 34.6471L21.0567 34.8325C21.1804 35.0798 21.3041 35.327 21.4278 35.5124C21.6134 35.945 21.799 36.3777 21.9227 36.7485C22.1082 37.1194 22.232 37.243 22.4175 37.3048C22.4794 37.3048 22.4794 37.3666 22.5412 37.3666H22.9124C22.9742 37.3666 23.0361 37.3666 23.0361 37.3048C23.2216 37.243 23.4072 37.0575 23.7165 36.6867L24.0258 36.3777C24.1495 36.2541 24.3351 36.1305 24.4588 36.0068L24.5825 35.945L24.6443 35.8832L24.768 35.8214L24.8299 35.7596H24.8918C25.0773 35.6978 24.9536 35.7596 25.0155 35.6978L25.2629 35.636C25.5722 35.5124 25.9433 35.5124 26.3144 35.5124C26.5 35.5742 26.6856 35.5742 26.8093 35.636C26.933 35.6978 27.1186 35.7596 27.2423 35.8832C27.799 36.2541 28.1082 36.6249 28.4175 36.9957C28.7268 37.3666 28.9742 37.6756 29.2216 37.9228C29.4691 38.17 29.7165 38.3555 29.9021 38.4791C30.0258 38.5409 30.0876 38.5409 30.2113 38.5409L30.5206 38.4791H30.6443C30.6443 38.4791 30.5206 38.5409 30.5825 38.4791H30.6443C30.8918 38.4173 31.201 38.2319 31.5103 38.1082C31.8196 37.9228 32.1907 37.7374 32.5619 37.6756C32.6856 37.6756 32.7474 37.6138 32.8711 37.6138H33.1804C33.4278 37.6138 33.5515 37.6756 33.6753 37.7374C33.7371 37.7374 33.799 37.7992 33.8608 37.7992H33.9227L33.9845 37.861C34.0464 37.861 34.0464 37.9228 34.1082 37.9228C34.232 38.0464 34.3557 38.1082 34.4175 38.2319C34.6031 38.4173 34.7268 38.6645 34.8505 38.7881C35.0979 39.1589 35.2216 39.4062 35.3454 39.5916C35.5928 39.7152 35.7784 39.777 35.7784 39.777Z" fill="#FFDB29"/>
<path d="M40.8506 63.1387C40.8506 63.1387 47.4073 57.5762 44.129 56.4637C41.7166 55.6603 39.0568 59.7394 37.5723 61.8408C37.5723 61.8408 38.7476 62.7679 40.8506 63.1387ZM75.3661 60.6047C75.7991 60.2339 70.2321 53.6207 68.6238 56.0929C67.3867 58.0707 72.2115 61.8408 72.2115 61.8408C72.2115 61.8408 74.129 61.3464 75.3661 60.4193" fill="#FFCD2E"/>
<path d="M50.9949 39.9004C50.9949 39.9004 50.9949 39.7768 50.933 39.4678C50.8711 39.2206 50.8711 38.7879 50.8711 38.2317C50.933 37.7372 51.0567 37.0574 51.4897 36.3775C51.9227 35.6976 52.6031 35.0178 53.5309 34.6469C53.9639 34.4615 54.4588 34.3379 54.9536 34.2143C55.4485 34.1525 56.0052 34.0289 56.6856 34.1525C57.9845 34.3997 59.0979 35.3268 59.7165 36.4393C60.3969 37.5518 60.7062 38.8497 60.768 40.1476C60.768 40.8275 60.7062 41.5074 60.4588 42.1872L60.3969 42.3726V42.4344L60.3351 42.5581L60.2732 42.7435L60.0876 43.1143C59.9021 43.4233 59.7784 43.7942 59.5928 44.0414C58.8505 45.1539 57.7371 46.1428 56.5 46.6372C55.2629 47.1317 53.9021 47.2553 52.7268 47.1317C52.1083 47.0699 51.5516 46.9462 50.9949 46.8226C50.4382 46.6372 49.9433 46.5136 49.3866 46.2664C48.3969 45.7719 47.5928 45.1539 46.9742 44.474C45.6753 43.1143 45.0567 41.631 44.933 40.5803C44.8711 40.0858 44.8711 39.6532 44.8711 39.3442C44.933 39.0969 44.933 38.9115 44.933 38.9115C44.933 38.9115 44.933 39.0351 44.9949 39.3442C45.0567 39.5914 45.1804 39.9622 45.366 40.4567C45.7371 41.3219 46.6031 42.4962 47.8402 43.4233C48.4588 43.9178 49.2629 44.3504 50.067 44.5976C50.8711 44.8449 51.8608 45.0303 52.7887 45.0303C53.7165 45.0303 54.7062 44.9067 55.5103 44.5358C55.9433 44.3504 56.3144 44.1032 56.6237 43.7942C56.933 43.4851 57.3041 43.1761 57.5516 42.7435L57.9227 42.1872L58.1083 41.8164L58.1701 41.631V41.6928V41.5692C58.2938 41.1983 58.4175 40.7039 58.4175 40.2712C58.4794 39.3442 58.232 38.3553 57.8608 37.6136C57.4897 36.8101 56.933 36.2539 56.2526 36.0685C55.9433 35.9449 55.5722 35.9449 55.1392 35.9449C54.7062 35.9449 54.3351 36.0067 53.9639 36.1303C53.2217 36.3157 52.665 36.6865 52.1701 37.1192C51.7371 37.5518 51.4897 38.1081 51.3041 38.5407C51.1804 38.9733 51.0567 39.406 50.9949 39.6532C51.0567 39.7768 50.9949 39.9004 50.9949 39.9004Z" fill="#FF9204"/>
<path d="M49.2013 31.3713C49.2013 31.3713 49.3868 31.3095 49.6961 31.0623C50.0054 30.8769 50.5002 30.5679 51.1188 30.197C51.7373 29.8262 52.6033 29.4554 53.593 29.27C54.0879 29.1464 54.6446 29.0845 55.2013 29.0227C55.5105 29.0227 55.8198 28.9609 56.1291 28.9609H57.0569C58.3559 29.0227 59.7167 29.2082 61.1394 29.7644C61.8198 30.0116 62.5621 30.3825 63.2425 30.8151C63.9229 31.2477 64.5415 31.7422 65.16 32.2366C65.3456 32.3602 65.4693 32.4839 65.593 32.6075L65.8404 32.8547L66.026 33.0401C66.1497 33.1637 66.3353 33.4109 66.459 33.5345C66.5827 33.72 66.7683 33.9054 66.892 34.0908C67.3868 34.8325 67.8198 35.6359 68.1291 36.4394C68.7476 38.1082 68.9951 39.9005 68.9332 41.6311C68.9332 42.4964 68.8095 43.3616 68.6239 44.2269C68.5002 44.6595 68.4384 45.0922 68.3147 45.5248L68.1909 45.8339L68.1291 46.0193L68.0672 46.1429L67.8198 46.6991C67.3868 47.5644 66.9538 48.3061 66.3971 48.9859C65.8404 49.6658 65.2219 50.2839 64.6033 50.7783C63.9229 51.2727 63.2425 51.7054 62.5621 52.0762C61.8817 52.447 61.1394 52.6943 60.459 52.9415C59.0982 53.3741 57.7373 53.6832 56.4384 53.745C55.2013 53.8068 54.026 53.6832 53.0363 53.4977C52.0466 53.3123 51.1806 53.1269 50.5002 52.9415C49.8198 52.7561 49.2631 52.5089 48.9538 52.3852C48.7683 52.3234 48.6446 52.1998 48.5827 52.1998C48.6446 52.2616 48.8301 52.2616 49.0157 52.3234C49.3868 52.447 49.9435 52.5707 50.6239 52.6325C51.3044 52.7561 52.1703 52.8179 53.16 52.8797C54.1497 52.8797 55.2631 52.8797 56.3765 52.7561C56.6858 52.6943 56.9332 52.6943 57.2425 52.5707C57.4899 52.5089 57.8611 52.3852 58.1085 52.3234C58.727 52.138 59.3456 51.8908 59.9023 51.5818C61.0775 50.9637 62.3147 50.2839 63.3662 49.3568C63.8611 48.8623 64.3559 48.3679 64.7889 47.8116C65.2219 47.2554 65.5312 46.5755 65.7786 46.0193C66.3353 44.5977 66.5827 43.1762 66.6446 41.6311C66.6446 40.1477 66.459 38.6026 66.026 37.3047C65.7786 36.6248 65.4693 36.0068 65.0982 35.4505C65.0363 35.3269 64.9126 35.1415 64.7889 35.0179C64.6652 34.8943 64.6033 34.7707 64.4796 34.647L64.294 34.4616L64.1085 34.2762L63.7373 33.9054C62.6858 32.9165 61.6342 32.0512 60.459 31.495C59.9023 31.1859 59.2837 31.0005 58.727 30.8151C58.1703 30.6297 57.5518 30.5061 56.9951 30.4443C55.8198 30.2588 54.7683 30.197 53.8404 30.2589C52.9126 30.3207 52.0466 30.5061 51.4281 30.7533C50.7477 31.0005 50.2528 31.1859 49.8817 31.3095C49.3868 31.3095 49.2013 31.3713 49.2013 31.3713Z" fill="#FF9204"/>
<path d="M12.0878 54.7339C11.4692 54.1777 10.5414 55.4756 10.2321 55.9701C9.92283 56.5263 9.79912 57.2062 10.2321 57.8242C10.6651 58.5659 11.5929 59.0603 12.3971 59.1839C12.5208 59.3694 12.6445 59.6784 12.3971 59.9874C11.3455 60.3582 10.0465 59.9256 9.05685 59.2457C7.38675 58.0714 6.58262 56.0937 7.88159 54.2395C8.37644 53.5596 9.05685 52.9416 10.0465 52.7562C10.8507 52.6326 11.7166 52.8798 12.83 53.6832C13.6342 54.2395 14.3146 54.9812 14.562 55.8464C14.6857 56.4027 14.6239 56.9589 14.129 57.577C13.8197 58.0096 13.8197 57.9478 13.5723 58.3187C13.3249 58.3805 12.83 58.3805 12.1496 57.886C11.4074 57.3298 11.2218 56.7735 11.2218 56.5263C11.4692 56.4027 12.5826 55.1666 12.0878 54.7339ZM20.995 59.8638C21.2424 60.7909 20.9331 61.718 20.562 62.4596C20.129 63.2013 19.5105 63.943 18.6445 64.1902C17.9022 64.4374 17.0362 64.3138 15.9228 63.6957C14.8094 63.0777 14.2527 62.3978 14.0672 61.6562C13.8197 60.7291 14.129 59.802 14.5001 59.0603C14.9331 58.3187 15.5517 57.577 16.4177 57.3298C17.1599 57.0826 18.0259 57.2062 19.1393 57.8242C20.2527 58.4423 20.8094 59.0603 20.995 59.8638ZM18.1496 61.0999C18.7682 60.0492 19.0775 59.1839 18.5826 58.8749C18.0259 58.5659 17.5311 59.3076 16.9125 60.4201C16.294 61.5944 16.0465 62.336 16.5414 62.5832C16.9744 62.8305 17.4692 62.2742 18.1496 61.0999ZM22.1703 62.8305C22.4795 62.1506 22.7888 61.2853 22.9125 60.2964C23.9641 60.3582 24.9538 60.6673 25.8816 61.0999C26.9331 61.5326 27.9228 62.0888 28.6032 62.7069C27.6135 64.4992 26.6239 66.6624 26.3764 68.2694C26.129 68.3312 25.6342 68.2076 25.2012 68.0221C24.5208 67.7749 24.2115 67.5277 24.0259 67.3423C24.3971 65.9826 25.0156 64.3138 25.696 62.8305C25.2012 62.6451 25.1393 62.5832 24.6445 62.3978C23.7166 65.1791 22.9125 65.9826 22.294 66.5388C21.861 66.6006 21.3661 66.477 20.8713 66.2298C20.0053 65.8589 19.7579 65.3027 19.8816 64.9937C21.0568 64.6846 21.6754 63.8812 22.1703 62.8305ZM29.4074 62.8305C30.2115 62.6451 31.263 62.9541 31.8816 63.4485C31.8197 64.1902 31.6342 64.9937 31.4486 65.8589C31.8197 65.9826 32.3146 66.1062 32.6239 66.168C32.8713 65.3645 33.1806 64.6228 33.4898 63.943C34.3558 63.8812 35.3455 64.1902 35.9022 64.8082C34.9744 66.4152 34.294 68.8256 34.1702 70.6798C33.9228 70.7416 33.428 70.6798 32.995 70.5562C32.3146 70.3707 31.9434 70.1235 31.696 69.9999C31.7579 69.2583 31.9434 68.4548 32.129 67.6513C31.8197 67.4659 31.3249 67.3423 30.9538 67.2805C30.7063 68.0839 30.3971 68.8256 30.0878 69.5055C29.8404 69.5055 29.4074 69.5055 28.727 69.3201C28.294 69.1964 27.861 68.9492 27.6754 68.7638C28.6032 67.0951 29.2837 64.6846 29.4074 62.8305ZM36.7063 64.8701C39.0568 64.7464 41.2218 65.4263 42.0259 65.7353C42.0878 66.168 41.8404 66.9714 41.5929 67.3423C40.9125 67.0332 39.861 66.7242 39.1187 66.6624C39.0568 66.9096 38.995 67.3423 38.995 67.5895C39.4898 67.7749 39.9847 67.8367 40.4795 67.8985C40.6032 68.2076 40.4795 69.2582 40.1703 69.5055C39.6754 69.3201 39.1806 69.1964 38.6857 69.1346C38.6239 69.4437 38.562 69.8763 38.5001 70.0617C38.9331 70.3089 40.6032 70.3708 41.0362 70.3089C41.1599 70.8652 41.0362 71.8541 40.7888 72.1013C39.5517 71.9777 37.8197 71.9159 35.5311 70.9888C36.2733 69.2582 36.7682 66.7242 36.7063 64.8701ZM44.995 66.2298C44.8094 66.9714 44.562 68.5166 44.9331 69.1964C45.1806 69.5673 45.4898 69.8145 46.1084 69.8763C46.294 68.6402 46.4177 67.3423 46.4177 66.477C47.2218 66.3534 48.4589 66.477 49.263 66.8478C48.83 68.4548 48.3971 71.0506 48.5208 72.9666C47.7785 73.3374 46.3558 73.152 45.6135 72.6576C45.7373 72.2867 45.861 71.6069 45.9228 71.1124C45.1187 71.1124 43.7579 70.9888 42.9538 70.3089C41.7166 69.3201 42.0878 67.3423 42.2733 65.9826C43.0156 65.7353 44.562 66.0444 44.995 66.2298ZM50.5001 67.0332C51.2424 66.6624 52.294 66.6624 53.0981 67.0332C53.2218 67.7749 53.2218 68.6402 53.2218 69.4437C53.6548 69.5055 54.1496 69.5055 54.4589 69.4437C54.5208 68.6402 54.6445 67.7749 54.7682 67.0332C55.5723 66.7242 56.6239 66.786 57.3661 67.2187C56.8713 69.011 56.8094 71.5451 57.1806 73.3374C56.9331 73.461 56.4383 73.5846 56.0053 73.5228C55.3249 73.5228 54.83 73.3992 54.6445 73.2756C54.5208 72.5339 54.5208 71.7305 54.5208 70.927C54.2115 70.8652 53.6548 70.8652 53.2837 70.8652C53.2218 71.6687 53.0981 72.4721 52.9744 73.2138C52.727 73.2756 52.294 73.3992 51.5517 73.3374C51.0568 73.3374 50.6239 73.152 50.3764 73.0284C50.7476 71.4214 50.8713 68.8874 50.5001 67.0332ZM62.3764 68.5166C63.7991 68.5166 65.0362 69.1964 65.1599 70.7416C65.2218 71.6687 64.9125 72.5339 63.9847 72.9666C63.3043 73.2756 62.5001 73.3992 61.7579 73.461C60.83 73.5228 59.5929 73.461 58.727 73.2138C58.6651 71.3596 58.5414 69.3819 58.1084 67.4041C58.727 66.8478 59.7785 66.8478 60.5826 67.1569C60.6445 67.5895 60.7063 68.0839 60.7682 68.702C61.2012 68.5784 61.8197 68.4548 62.3764 68.5166ZM61.0775 72.1631C61.2012 72.2249 61.6342 72.1631 61.8816 72.1631C62.6239 72.0395 62.8094 71.4214 62.7476 70.927C62.6857 70.3089 62.3146 69.8763 61.5723 69.9381C61.3249 69.9381 61.0775 69.9381 60.8919 69.9999C60.9538 70.618 61.0156 71.3596 61.0775 72.1631ZM67.5723 73.0284C66.8919 73.0902 66.3971 73.0284 66.1496 72.9666C65.7166 71.1124 65.4692 68.6402 65.5929 66.7242C66.3352 66.3534 67.3867 66.2916 68.1909 66.6006C67.9434 68.393 68.1909 70.9888 68.6857 72.7194C68.5001 72.7812 68.0672 72.9666 67.5723 73.0284ZM70.1703 72.3485C70.2321 70.4944 69.6754 68.0221 68.8713 66.3534C69.5517 65.7971 70.5414 65.5499 71.4074 65.6735C71.7785 66.5388 72.0259 67.5895 72.2733 68.5784C72.7682 67.4659 73.263 66.2916 73.3249 65.2409C73.5105 65.1173 73.9434 64.8701 74.6857 64.7464C75.1806 64.6846 75.6754 64.6846 75.9228 64.7464C75.861 66.6006 76.4177 69.0728 77.1599 70.7416C76.5414 71.2978 75.4898 71.5451 74.6239 71.4214C74.2527 70.5562 74.0053 69.5673 73.7579 68.5166C73.263 69.6291 72.83 70.8034 72.7063 71.8541C72.2115 72.1013 71.9641 72.2249 71.3455 72.3485C70.9125 72.4103 70.4177 72.4103 70.1703 72.3485ZM71.5311 64.1284C71.6548 63.4485 71.4074 62.7687 70.4795 62.9541C69.5517 63.1395 69.5517 64.1902 70.1084 64.7464C70.6651 65.3027 71.7166 65.1173 72.3352 64.9937C72.9538 64.8701 74.0053 64.561 74.3146 63.8812C74.562 63.1395 74.1909 62.1506 73.263 62.3978C72.3352 62.5832 72.3971 63.3249 72.7682 63.943C72.3352 64.0666 71.9022 64.1902 71.5311 64.1284ZM84.7682 62.7069C83.9641 62.9541 84.5826 64.4374 84.83 64.9319C85.1393 65.4881 85.6342 65.9207 86.4383 65.9207C87.2424 65.9207 88.1703 65.4263 88.727 64.8082C88.9744 64.8082 89.2836 64.8701 89.4074 65.2409C89.1599 66.2916 88.1084 67.2187 87.0569 67.7131C85.2012 68.5784 83.0981 68.2076 82.2321 66.0444C81.9228 65.2409 81.7373 64.3138 82.1084 63.4485C82.4177 62.7069 83.0981 62.0888 84.3352 61.5944C85.2012 61.2235 86.2527 60.9763 87.0569 61.2853C87.6136 61.4707 88.0465 61.8416 88.294 62.5214C88.5414 63.0159 88.4795 62.9541 88.6651 63.3867C88.6032 63.6339 88.3558 64.0048 87.5517 64.3756C86.6857 64.7464 86.129 64.6228 85.8816 64.4992C85.8197 64.1284 85.3867 62.5214 84.7682 62.7069ZM88.2321 60.3582C88.6651 59.802 89.5929 58.9985 90.6445 58.4423C91.5723 57.9478 93.3043 57.0826 94.1084 58.3187C94.4795 58.9367 94.294 59.7402 93.7373 60.111C94.6651 59.802 95.5929 60.0492 96.0259 60.9145C96.83 62.5832 94.7888 63.8812 93.6135 64.4992C92.6857 64.9937 91.696 65.3645 91.0156 65.4263C90.5826 64.561 89.2837 62.1506 88.2321 60.3582ZM90.83 59.802C91.0775 60.2346 91.3249 60.7291 91.6342 61.1617C92.3146 60.8527 92.6857 60.3582 92.1909 59.6784C91.7579 59.2457 91.2012 59.493 90.83 59.802ZM92.8094 63.5103C93.3661 63.2631 94.1084 62.8923 93.6135 62.0888C93.1806 61.3471 92.6239 61.7798 92.0672 62.0888C92.3146 62.5832 92.562 63.0159 92.8094 63.5103ZM94.4795 56.7117C96.0259 54.9194 98.0053 53.8687 98.8713 53.5596C99.2424 53.8069 99.5517 54.5485 99.7373 54.9812C99.0569 55.2902 98.0672 55.7846 97.5105 56.2173C97.6342 56.4027 97.8816 56.7735 98.0672 56.9589C98.5001 56.7117 98.9331 56.4027 99.3043 56.0937C99.6135 56.2173 100.232 57.0207 100.232 57.4534C99.7373 57.7006 99.3043 57.9478 98.9331 58.2569C99.1187 58.5659 99.3661 58.8749 99.428 58.9985C99.9228 58.8749 101.098 57.7006 101.345 57.3298C101.84 57.6388 102.397 58.3805 102.459 58.7513C101.469 59.5548 100.232 60.7291 97.9434 61.718C97.263 60.111 95.8404 57.9478 94.4795 56.7117ZM99.428 53.4978C99.6136 53.0652 100.727 51.9527 101.655 51.211C102.459 50.5312 103.51 49.8513 104.376 49.4805C104.809 49.9131 105.242 50.7784 105.304 51.1492C105.057 51.211 104.376 51.5819 103.758 52.0763C104.5 53.2506 105.923 54.6103 106.912 55.1666C106.727 55.5374 106.356 56.0319 105.737 56.5263C105.18 57.0207 104.871 57.1444 104.5 57.268C103.449 56.0937 102.459 54.7339 101.84 53.6214C101.345 54.1159 100.851 54.5485 100.603 54.9194C100.232 54.8576 99.5517 54.0541 99.428 53.4978Z" fill="#FF9206"/>
<path d="M38.4999 30.3208C38.4999 30.3208 38.5618 30.3826 38.6855 30.4444C38.8092 30.5681 38.9948 30.6917 39.1804 30.9389C39.3659 31.1861 39.5515 31.5569 39.6133 32.0514C39.6752 32.5458 39.4896 33.1021 39.1185 33.5965L39.0566 33.6583L38.9948 33.7201L38.9329 33.7819L38.8092 33.9056C38.6236 34.0292 38.4999 34.091 38.3144 34.1528C37.9432 34.2764 37.634 34.3382 37.2628 34.3382C36.5824 34.3382 35.902 34.1528 35.2834 33.9674C33.9845 33.5347 32.8092 32.8549 31.634 32.1132C30.4587 31.3715 29.4072 30.5681 28.4175 29.7646C27.9226 29.3937 27.4278 28.9611 26.9948 28.5903C26.5618 28.2194 26.1288 27.8486 25.7577 27.4778C25.0154 26.7979 24.4587 26.1799 24.0257 25.7472C23.5927 25.3146 23.4072 25.0674 23.4072 25.0674C23.4072 25.0674 23.7164 25.191 24.2113 25.5C24.7061 25.809 25.4484 26.1799 26.3144 26.7361C26.7474 26.9833 27.1803 27.2924 27.6752 27.6014C28.17 27.9104 28.6649 28.2194 29.1597 28.5903C30.2113 29.2701 31.3247 30.0118 32.4381 30.6917C33.5515 31.3715 34.6649 32.0514 35.7164 32.5458C36.2731 32.7931 36.768 32.9785 37.2628 33.0403C37.5102 33.1021 37.6958 33.1021 37.8814 33.0403C37.9432 33.0403 38.0669 32.9785 38.1288 32.9785H38.1907L38.2525 32.9167H38.3144L38.3762 32.8549C38.6855 32.6076 38.8711 32.2368 38.9329 31.9278C38.9948 31.6187 38.9329 31.2479 38.8711 31.0007C38.8092 30.7535 38.6855 30.5681 38.6236 30.3826C38.5618 30.3826 38.4999 30.3208 38.4999 30.3208ZM47.5309 14.684L47.8401 15.3021C47.9639 15.4875 48.0257 15.7347 48.2113 15.9819C48.335 16.2292 48.5206 16.5382 48.7061 16.8472C48.8917 17.1562 49.0773 17.5271 49.3247 17.8979C49.5102 18.2687 49.6958 18.7014 49.8814 19.1958C49.8814 19.2576 49.9432 19.3194 49.9432 19.3812L50.0051 19.5667C50.0051 19.6903 50.067 19.8757 50.067 19.9993C50.067 20.3083 50.0669 20.5556 49.9432 20.8646C49.8195 21.1736 49.634 21.4208 49.3247 21.6062C49.0773 21.7917 48.7061 21.8535 48.3968 21.8535C48.2113 21.8535 48.0876 21.8535 47.9639 21.7917C47.8401 21.7299 47.7164 21.7299 47.5309 21.6681C47.1597 21.4208 47.036 21.1736 46.8505 20.9264C46.603 20.4319 46.4793 19.9375 46.4175 19.4431C46.2319 18.516 46.17 17.6507 46.1082 16.8472C46.0463 16.1056 46.0463 15.4875 46.0463 15.0549V14.375C46.0463 14.375 46.1082 14.6222 46.2319 15.0549C46.2938 15.4875 46.4175 16.1056 46.603 16.8472C46.7267 17.5889 46.9123 18.4542 47.0979 19.3194C47.2216 19.7521 47.3453 20.1847 47.5309 20.5556C47.5927 20.741 47.7783 20.9264 47.8401 20.9264C47.902 20.9264 48.0257 20.9882 48.0876 20.9882H48.3968C48.768 20.9882 49.0773 20.8028 49.201 20.4937C49.2628 20.3083 49.3247 20.1229 49.3247 19.9375V19.6285L49.2628 19.4431L49.201 19.3194C49.0773 18.8868 48.9535 18.4542 48.768 18.0833C48.5824 17.7125 48.4587 17.3417 48.335 16.9708C48.2113 16.6 48.0876 16.291 47.9639 15.9819C47.8401 15.6729 47.7783 15.4257 47.7164 15.2403C47.5927 14.9312 47.5309 14.684 47.5309 14.684Z" fill="#FF9204"/>
<path d="M48.954 18.207C49.1396 18.7633 49.0777 19.814 48.5829 20.1848C47.8406 20.7411 47.4076 20.0612 47.0365 19.5667C46.9746 20.7411 47.7788 22.1008 49.0777 21.4827C49.6963 21.2355 49.6963 20.6174 49.7581 20.0612C49.82 19.5667 49.82 19.1341 49.6344 18.6397C49.5107 18.3306 49.2633 18.207 49.0777 17.898L48.954 18.207ZM66.8922 18.3924C66.8922 18.3924 66.8922 18.7015 66.8303 19.2577C66.7685 19.814 66.6447 20.5556 66.3355 21.4209C66.2117 21.8536 65.9643 22.348 65.655 22.8424C65.3458 23.3369 64.8509 23.8313 64.1087 24.0167C63.7375 24.0786 63.3045 24.0786 63.0571 24.0167C62.6241 23.9549 62.3148 23.7695 62.0056 23.4605C61.6963 23.1515 61.5107 22.7806 61.4489 22.348C61.387 21.9772 61.387 21.6063 61.4489 21.2355C61.5107 20.8647 61.5726 20.5556 61.6963 20.2466L61.82 19.9994L61.9437 19.7522L62.1293 19.3813C62.3767 18.8251 62.686 18.3306 62.9334 17.8362C63.1808 17.3417 63.4901 16.8473 63.7375 16.4147C63.9849 15.982 64.2942 15.5494 64.5416 15.1786C65.5313 13.6334 66.2736 12.6445 66.2736 12.6445C66.2736 12.6445 65.9025 13.8188 65.1602 15.4876C64.9746 15.9202 64.7891 16.3529 64.6035 16.8473C64.4179 17.3417 64.1705 17.8362 63.9849 18.3306C63.7375 18.8251 63.552 19.3813 63.2427 19.9376L63.0571 20.3702C63.0571 20.432 62.9953 20.5556 62.9953 20.5556L62.9334 20.7411L62.7478 21.4827C62.686 21.9772 62.7478 22.4098 62.9953 22.657C63.119 22.7806 63.3045 22.9042 63.4282 22.9042C63.6757 22.9661 63.8612 22.9661 64.0468 22.9661C64.4179 22.9042 64.7891 22.657 65.0983 22.2862C65.4076 21.9154 65.6551 21.5445 65.8406 21.1737C66.2736 20.432 66.521 19.6904 66.7066 19.1959C66.7684 18.7015 66.8922 18.3924 66.8922 18.3924Z" fill="#FF9204"/>
<path d="M66.149 20.5561C66.3346 21.7304 64.1696 22.2249 63.4892 21.4832C62.9944 20.9888 63.0562 20.1235 63.1799 19.5054C63.3037 18.702 63.4892 17.7131 63.8604 17.0332C63.1799 18.3929 62.6232 19.6908 62.1903 21.1742C61.9428 22.1013 61.881 22.9047 62.747 23.5228C63.3655 23.9554 64.0459 23.7082 64.6026 23.2138C65.0975 22.7193 65.9635 21.854 66.2109 21.1742L66.149 20.5561ZM90.9531 26.2422C90.9531 26.2422 90.7676 26.5513 90.3964 26.9839C90.2109 27.2311 89.9635 27.4783 89.6542 27.7874C89.3449 28.0964 89.0356 28.4672 88.6026 28.7763C87.8604 29.4561 86.9325 30.2596 85.881 31.0631C84.8913 31.8665 83.7779 32.67 82.6026 33.4117C82.0459 33.7825 81.4274 34.1533 80.8707 34.5242C80.5614 34.7096 80.314 34.895 80.0047 35.0186C79.6954 35.204 79.448 35.3276 79.0769 35.5131C78.8294 35.6367 78.3964 35.8221 78.0253 35.8221C77.8397 35.8221 77.6542 35.8839 77.4686 35.8839H77.1593C77.0356 35.8839 76.9738 35.8221 76.8501 35.8221L76.5408 35.7603L76.2933 35.6367L76.0459 35.5131L75.8604 35.3276C75.6129 35.0804 75.4892 34.7714 75.3037 34.5242C75.3037 34.5242 75.2418 34.4006 75.3037 34.4624V34.3388L75.2418 34.1533C75.1799 34.0297 75.1799 33.8443 75.1799 33.6589C75.1799 33.4735 75.1799 33.3499 75.2418 33.2263C75.2418 33.1026 75.3037 32.979 75.3037 32.8554C75.4274 32.4228 75.6748 32.0519 75.9222 31.8665C76.1696 31.6193 76.3552 31.4957 76.5408 31.4957C76.7263 31.4339 76.7882 31.4339 76.7882 31.4339L76.6026 31.6193C76.4789 31.6811 76.3552 31.9283 76.1696 32.1138C76.0459 32.361 75.9222 32.67 75.9222 33.0408V33.3499C75.9222 33.4117 75.9222 33.5353 75.9841 33.5971C76.0459 33.6589 75.9841 33.7207 76.0459 33.8443L76.1078 34.0297L76.1696 34.0915C76.4171 34.4624 76.7882 34.7096 77.1593 34.7714H77.4068C77.5305 34.7714 77.5923 34.7096 77.716 34.7096C77.9635 34.6478 78.149 34.586 78.4583 34.4006C78.9531 34.0915 79.5098 33.7207 80.0665 33.3499L81.7366 32.2374L83.4067 31.1249C83.9635 30.754 84.5202 30.445 85.0769 30.0742C85.6336 29.7033 86.1284 29.3943 86.6232 29.0853C87.1181 28.7763 87.6129 28.4672 88.0459 28.22C88.4789 27.9728 88.8501 27.7256 89.2212 27.4783C89.5923 27.2929 89.9016 27.1075 90.149 26.9221C90.7057 26.4276 90.9531 26.2422 90.9531 26.2422Z" fill="#FF9204"/>
<path d="M82.2322 31.9272C82.0467 32.5453 79.4487 33.4723 78.7065 33.3487C77.6549 33.2251 76.8508 32.1744 76.7271 31.1855C76.1704 31.3092 75.9848 32.6689 75.923 33.1633C75.8611 33.9668 76.0467 34.8939 76.9126 35.3265C79.1395 36.5626 81.057 33.2869 82.6652 32.3599L82.2322 31.9272ZM106.294 45.2154C106.294 45.2154 105.799 45.2772 104.871 45.4626C103.943 45.5862 102.644 45.8335 101.098 46.0189C100.294 46.1425 99.49 46.2661 98.5621 46.3897C97.6961 46.5133 96.7065 46.6369 95.7168 46.6987C94.7271 46.8223 93.7374 46.946 92.6858 47.0078C91.6343 47.0696 90.5828 47.1932 89.5312 47.255L86.3766 47.4404C85.325 47.5022 84.3353 47.5022 83.3456 47.564H80.5003C80.0673 47.564 79.5724 47.564 79.1395 47.5022C78.7065 47.5022 78.2735 47.4404 77.8405 47.3168C77.4075 47.1932 77.0364 47.0696 76.6652 46.7605C76.4797 46.6369 76.356 46.3279 76.356 46.0807C76.356 45.8335 76.4797 45.648 76.6034 45.5244C77.0364 44.9064 77.5931 44.6592 78.0261 44.4737C78.459 44.3501 78.8302 44.2883 79.0776 44.2883H79.4487C79.4487 44.2883 79.325 44.2883 79.0776 44.3501C78.8302 44.4119 78.459 44.4737 78.0879 44.6592C77.7168 44.8446 77.2219 45.2154 76.9745 45.7098C76.9127 45.8335 76.8508 45.9571 76.8508 46.0189C76.8508 46.0807 76.9127 46.1425 76.9745 46.2043C77.1601 46.3279 77.5312 46.4515 77.9023 46.4515C78.6446 46.5751 79.4487 46.4515 80.3766 46.3897C81.2425 46.3279 82.2322 46.2043 83.2219 46.0807C84.2116 45.9571 85.2013 45.8953 86.2529 45.7717C87.3044 45.7098 88.3559 45.5862 89.3456 45.5244C90.3972 45.4008 91.4487 45.4008 92.5003 45.2772C93.5518 45.2154 94.5415 45.1536 95.5312 45.0918C96.5209 45.03 97.4487 44.9682 98.3766 44.9682C99.3044 44.9064 100.108 44.9064 100.912 44.9064C102.521 44.9064 103.82 44.9064 104.747 44.9682C105.242 44.9682 105.552 45.03 105.799 45.03C106.17 45.2154 106.294 45.2154 106.294 45.2154Z" fill="#FF9204"/>
<path d="M79.4486 44.2891C78.83 44.4127 78.0259 44.7217 78.0259 45.4634C77.964 46.5141 79.3867 46.6995 80.0671 46.8849C79.5723 47.1939 77.2836 47.1939 76.8506 46.6377C76.2321 45.7724 77.7166 44.7217 78.397 44.5981" fill="#FF9206"/>
<path d="M35.7789 42.1868C35.7789 42.1868 35.9026 42.125 36.15 42.125C36.3974 42.125 36.7686 42.125 37.2016 42.3722C37.6346 42.6812 37.9438 43.2375 38.0676 43.9174C38.1294 44.2264 38.1913 44.5972 38.1913 44.9681C38.1913 45.4007 38.1294 45.8333 37.8201 46.266C37.5727 46.6986 37.1397 47.0076 36.7067 47.1931C36.2737 47.3785 35.8407 47.5021 35.3459 47.6257C34.4799 47.8111 33.4902 47.9965 32.5624 48.1819C31.5727 48.3056 30.583 48.491 29.5933 48.6146C28.5418 48.7382 27.5521 48.8618 26.5005 48.9854C25.449 49.109 24.3975 49.1708 23.4078 49.2944C22.3562 49.4181 21.3665 49.4799 20.3768 49.5417C18.3974 49.6653 16.6036 49.7889 15.0572 49.9125C13.5109 49.9743 12.2119 50.0979 11.284 50.0979C10.8511 50.1597 10.4799 50.1597 10.2325 50.1597C9.98504 50.1597 9.86133 50.2215 9.86133 50.2215C9.86133 50.2215 10.3562 50.0361 11.2222 49.7889C12.0882 49.5417 13.3871 49.2944 14.9335 49.0472C16.4799 48.8 18.2737 48.491 20.2531 48.2437L23.2222 47.8729C24.2119 47.7493 25.2634 47.6257 26.315 47.5021C28.3562 47.3167 30.4593 47.0694 32.3768 46.884C33.3665 46.7604 34.2944 46.6986 35.1603 46.575C36.0263 46.4514 36.7686 46.266 37.1397 45.7715C37.3253 45.5243 37.449 45.2153 37.449 44.9681C37.5109 44.659 37.5109 44.2882 37.449 44.041C37.3871 43.4229 37.2634 42.9285 36.9541 42.6194C36.6449 42.3104 36.2737 42.2486 36.0882 42.1868H35.7789Z" fill="#FF9204"/>
<path d="M35.9635 42.25C36.6439 43.1771 36.7058 44.2896 36.1491 45.4639C35.778 46.2056 35.2831 46.5764 34.5408 46.8854C34.1697 47.0708 33.5511 47.0708 33.3037 47.3181C33.7367 47.5035 34.2934 47.3799 34.7264 47.2563C35.345 47.0708 36.0254 46.9472 36.5821 46.7C37.3862 46.391 37.7573 45.7729 37.9429 44.9694C38.2522 43.6097 37.881 42.3736 36.3965 42.25" fill="#FF9204"/>
<path d="M31.3862 10.4805H30.0254C29.9017 10.4805 29.7161 10.4805 29.5306 10.5423C29.345 10.5423 29.2213 10.5423 29.0357 10.6041C28.8502 10.6659 28.6646 10.6659 28.479 10.6659C28.1079 10.6659 27.7368 10.8513 27.3656 10.9131C26.9945 11.0368 26.6234 11.0986 26.3141 11.284C25.9429 11.4076 25.5718 11.593 25.2007 11.7166C25.0151 11.8402 24.8295 11.902 24.644 12.0256L24.5203 12.0874H24.4584C24.4584 12.0874 24.5821 12.0256 24.5203 12.0256L24.3965 12.0874L24.0254 12.2729C23.9017 12.3347 23.8398 12.3965 23.778 12.3965C23.7161 12.4583 23.6543 12.4583 23.5306 12.5201C23.4069 12.6437 23.2213 12.7055 23.0357 12.8291C22.7264 13.0145 22.479 13.1999 22.1697 13.4472C21.9223 13.6326 21.6749 13.9416 21.3656 14.1888C21.1182 14.4979 20.8708 14.8069 20.6852 15.1159C20.5615 15.3013 20.4378 15.4249 20.3759 15.6104C20.2522 15.7958 20.1904 15.9194 20.0666 16.1048C19.8811 16.4138 19.6955 16.6611 19.5718 16.9083C19.2625 17.4027 19.077 17.6499 19.077 17.6499C19.077 17.6499 19.0151 17.5881 18.9532 17.4645C18.8914 17.3409 18.7058 17.1555 18.5821 16.8465C18.4584 16.5993 18.3347 16.2902 18.211 15.8576C18.0873 15.4868 17.9636 15.0541 17.9017 14.4979C17.8398 14.0034 17.8398 13.4472 17.9636 12.8291C18.0873 12.2111 18.2728 11.5312 18.5821 10.9131C18.8914 10.2951 19.3862 9.67703 19.9429 9.12078C20.1904 8.87356 20.4996 8.62634 20.8089 8.44092C20.9326 8.31731 21.1182 8.1937 21.3038 8.13189C21.4893 8.00828 21.6749 7.88467 21.7986 7.88467L22.1697 7.69925L22.2935 7.63745L22.3553 7.57564H22.4172L22.6646 7.51384C22.9739 7.39022 23.2831 7.26661 23.6543 7.20481C24.3347 7.0812 25.0151 6.89578 25.6955 6.95759C26.3759 6.89578 27.0563 7.0812 27.613 7.20481C28.2316 7.45203 28.7264 7.63745 29.1594 7.94647C29.4069 8.07009 29.5924 8.2555 29.778 8.37911C29.9636 8.56453 30.1491 8.68814 30.2728 8.87356C30.3965 9.05897 30.5203 9.18259 30.644 9.3062C30.7677 9.42981 30.8295 9.55342 30.8914 9.67703C31.0151 9.92425 31.1388 10.1097 31.2007 10.2951C31.3862 10.3569 31.3862 10.4805 31.3862 10.4805ZM13.3862 21.6055C13.3862 21.6055 13.3244 21.6055 13.2007 21.5437C13.077 21.5437 12.8914 21.5437 12.7058 21.6055C12.2728 21.7291 11.7161 21.9763 11.0357 22.2854C10.3553 22.5944 9.55117 22.9652 8.74704 23.3979C8.31405 23.5833 7.88106 23.8305 7.50993 24.0159C7.32436 24.1395 7.13879 24.2631 6.95323 24.3249C6.89137 24.3868 6.82952 24.3867 6.82952 24.4486L6.52024 24.6958C6.27281 24.8812 5.96354 25.252 5.65426 25.5611C5.34498 25.8701 5.0357 26.1791 4.72642 26.5499C4.16972 27.2298 3.61302 27.8479 3.18003 28.4659C2.99447 28.7749 2.8089 29.0222 2.62333 29.3312C2.49962 29.5784 2.31405 29.8256 2.2522 30.0729C2.12849 30.2583 2.06663 30.4437 2.00477 30.5673C1.94292 30.6909 1.94292 30.7527 1.94292 30.7527C1.94292 30.7527 1.81921 30.6909 1.75735 30.5673C1.6955 30.4437 1.57178 30.2583 1.50993 30.0111C1.44807 29.7638 1.38622 29.4548 1.32437 29.084C1.32437 28.7131 1.26251 28.2805 1.32437 27.8479C1.38622 27.4152 1.44807 26.9208 1.63364 26.4263C1.75735 25.9319 2.00477 25.4374 2.2522 24.943C2.49962 24.4486 2.8089 23.9541 3.18003 23.4597C3.55117 22.9652 3.9223 22.5326 4.479 22.0999L4.78828 21.8527C4.97385 21.7291 5.15941 21.6055 5.28312 21.5437C5.5924 21.3583 5.90168 21.2347 6.1491 21.1729C6.70581 20.9874 7.26251 20.802 7.75735 20.6784C8.8089 20.4312 9.79859 20.3694 10.6646 20.4312C11.5306 20.493 12.2728 20.6784 12.7677 20.9874C13.0151 21.1111 13.2007 21.2965 13.2625 21.4201C13.3244 21.5437 13.3862 21.6055 13.3862 21.6055Z" fill="#92EAFF"/>
<path d="M102.521 23.0898C102.644 23.2135 102.83 23.3371 102.954 23.5225L103.325 24.0787C103.387 24.2641 103.51 24.4496 103.572 24.6968C103.634 24.8822 103.696 25.1294 103.696 25.3148C103.758 25.7475 103.758 26.1801 103.758 26.6128C103.758 27.0454 103.634 27.478 103.572 27.8489C103.449 28.2815 103.325 28.6523 103.201 29.0232C103.077 29.394 102.892 29.7648 102.706 30.1357C102.335 30.8155 101.902 31.4954 101.407 32.1135L100.48 29.4558C100.789 29.5176 101.098 29.6412 101.407 29.7648C101.655 29.8885 101.964 30.0739 102.15 30.2593C102.335 30.4447 102.583 30.6301 102.706 30.8155C102.892 31.001 103.077 31.1864 103.139 31.4336C103.263 31.619 103.387 31.8662 103.51 32.0516C103.634 32.2371 103.696 32.4843 103.758 32.6697C103.82 32.8551 103.943 33.1023 103.943 33.2878C104.005 33.4732 104.067 33.7204 104.067 33.9058C104.253 34.7093 104.253 35.5746 104.191 36.378C104.129 36.8107 104.067 37.1815 104.005 37.6141C103.882 37.985 103.758 38.4176 103.572 38.7266C103.51 38.5412 103.449 38.3558 103.325 38.1704C103.263 37.985 103.201 37.7996 103.077 37.676C102.892 37.3051 102.768 36.9961 102.583 36.6871C102.459 36.378 102.273 36.069 102.088 35.76C102.026 35.6364 101.902 35.451 101.84 35.3273C101.779 35.2037 101.655 35.0183 101.593 34.8947C101.531 34.7711 101.407 34.6475 101.346 34.4621C101.284 34.3385 101.16 34.2148 101.098 34.0912C101.036 33.9676 100.913 33.844 100.851 33.7204C100.789 33.5968 100.665 33.535 100.603 33.4114C100.541 33.2878 100.418 33.226 100.356 33.1641C100.294 33.1023 100.17 33.0405 100.109 32.9787C100.047 32.9169 99.9849 32.9169 99.923 32.8551C99.8612 32.8551 99.7993 32.8551 99.7993 32.7933L98.0674 31.1246L98.8715 30.1357L99.49 29.3322L100.109 28.5287L100.727 27.7253C100.913 27.478 101.098 27.2308 101.284 26.9218C101.469 26.6746 101.655 26.3655 101.778 26.1183C101.84 25.9947 101.902 25.8093 102.026 25.6857C102.088 25.5621 102.15 25.3766 102.211 25.253C102.273 25.1294 102.335 24.944 102.397 24.8204C102.459 24.635 102.459 24.5114 102.521 24.326C102.583 24.1405 102.583 24.0169 102.583 23.8315C102.521 23.5225 102.521 23.3371 102.521 23.0898Z" fill="#4DBFF7"/>
<path d="M80.3143 13.6333C80.2525 13.4479 80.0669 13.2625 79.8195 12.9534C79.6958 12.8298 79.5102 12.7062 79.3865 12.5208C79.2009 12.3972 79.0154 12.2736 78.8298 12.0882C78.3968 11.8409 77.902 11.5937 77.2834 11.3465C76.1081 10.9138 74.6855 10.7284 73.1391 10.852C72.7679 10.852 72.3349 10.9138 71.9638 11.0375L71.6545 11.0993L71.469 11.1611H71.3452C71.2834 11.1611 71.4071 11.0993 71.2215 11.2229L70.9741 11.2847L69.0566 18.3305C69.304 18.0833 69.5514 17.8361 69.7989 17.6507C70.2318 17.2798 70.6648 16.9708 71.0978 16.6618C71.3453 16.5382 71.5927 16.3527 71.7782 16.2291C71.9638 16.1055 72.0875 15.9819 72.4587 15.8583L72.9535 15.6111C72.7679 15.6729 72.8916 15.6111 72.8916 15.6729H72.9535L73.0154 15.6111C73.0772 15.6111 73.1391 15.5493 73.2009 15.5493C73.4483 15.4257 73.6958 15.3639 73.9432 15.2402C74.9947 14.8694 76.1081 14.5604 77.036 14.3132C77.5308 14.1895 77.9638 14.1277 78.3349 14.0041C78.5205 13.9423 78.7061 13.9423 78.8916 13.9423C79.0772 13.9423 79.2628 13.9423 79.3865 13.8805H80.438C80.438 13.8805 80.3762 13.8187 80.3143 13.6333Z" fill="#92EAFF"/>
<path d="M110.314 66.6627C110.191 66.8481 110.067 67.0953 109.882 67.2807C109.572 67.6516 109.201 68.0224 108.83 68.2696C108.459 68.5786 108.026 68.7641 107.593 68.9495C107.16 69.1349 106.727 69.2585 106.232 69.3203C105.304 69.5057 104.376 69.5057 103.449 69.3821C102.583 69.2585 101.717 68.9495 100.974 68.5168L99.1186 67.3425L99.3042 69.753C99.366 70.8655 99.1805 71.9161 98.8093 72.9668C98.4382 73.9557 97.8197 74.8828 97.1392 75.6245C96.397 76.428 95.5928 77.046 94.665 77.4786C94.232 77.7259 93.7372 77.9113 93.3042 78.0349L93.1186 78.0967H92.9949H93.0568L92.5619 78.2203C92.3145 78.2821 92.1289 78.2821 91.8197 78.3439C89.7784 78.5911 87.799 78.0349 85.8815 77.046C84.0877 76.1189 82.3557 74.6974 80.6238 73.2141C79.1392 73.6467 77.531 74.0793 75.799 74.4502C75.366 75.8717 74.8093 77.2314 74.1289 78.3439C73.4485 79.4564 72.5825 80.3835 71.531 81.0634C70.4794 81.7432 69.3042 82.1759 67.9434 82.4849C67.263 82.6085 66.5825 82.7321 65.8403 82.7939C65.1599 82.8557 64.3557 82.8557 63.6753 82.8557H62.5619C62.2526 82.8557 61.8197 82.7939 61.5104 82.7321C60.7681 82.6703 60.0877 82.5467 59.4073 82.3613C58.0465 82.0523 56.7475 81.496 55.5722 80.8161C54.397 80.1363 53.4691 79.3328 52.7269 78.4057C52.232 77.7259 51.8609 76.9842 51.6753 76.2425C47.531 75.9953 43.6341 75.5627 40.1083 74.8828C39.8609 74.8828 39.6135 74.821 39.366 74.7592C39.0568 74.6974 38.6856 74.6356 38.3764 74.5738L37.8197 74.3884C33.799 73.5231 30.2733 72.4724 27.1805 71.3599C26.2526 71.8543 25.263 72.4106 24.3351 72.905L24.0258 73.0905L23.9021 73.1523L23.8403 73.2141H23.7784C23.7784 73.2141 23.9021 73.1523 23.8403 73.2141L23.2217 73.5231C22.7887 73.7703 22.4794 73.8321 22.1702 74.0175C21.4898 74.3266 20.7475 74.6356 20.0052 74.821C17.0361 75.6863 13.8815 75.6245 10.9124 74.512C10.1701 74.2648 9.42787 73.8939 8.74746 73.4613C8.06704 73.0905 7.44849 72.596 6.82993 72.1016C5.65467 71.0509 4.66498 69.7529 3.98457 68.2696C3.30416 66.7863 2.87117 65.1175 2.87117 63.4488C2.87117 62.5835 2.93302 61.7182 3.11859 60.853C3.2423 59.8641 3.48972 58.9988 3.86086 58.1953C3.30416 58.937 2.87117 59.6786 2.50003 60.5439C2.1289 61.4092 1.88148 62.2745 1.69591 63.2016C1.38663 65.0557 1.44849 66.9717 2.00519 68.8259C2.56189 70.68 3.48972 72.4106 4.72684 73.9557C5.34539 74.6974 6.08766 75.3773 6.82993 76.0571C7.63405 76.6752 8.43818 77.1696 9.30416 77.6641C10.1701 78.1585 11.098 78.5293 12.0258 78.8384C12.9537 79.1474 13.9434 79.3946 14.9331 79.5182C15.9227 79.7036 16.9124 79.7036 17.964 79.7036C18.9537 79.6418 20.0052 79.58 20.9331 79.3946C21.9227 79.2092 22.8506 78.962 23.8403 78.653C24.3351 78.4675 24.8918 78.2821 25.263 78.1585L25.8815 77.9113L26.5619 77.6023C27.5516 77.1696 28.5413 76.737 29.4691 76.3043L30.0877 76.9224C30.83 77.6023 31.6959 78.1585 32.5619 78.7148C32.8093 78.8384 32.9949 78.962 33.2423 79.0856C33.4898 79.2092 33.799 79.3328 33.9846 79.4564L34.5413 79.7036L35.2836 79.9509C35.7166 80.1363 36.2114 80.2599 36.6444 80.3835C37.0774 80.5071 37.5722 80.6307 38.0671 80.7543C39.0568 80.9398 40.0465 81.1252 41.1599 81.1252C42.2114 81.1252 43.3867 81.0016 44.5001 80.7543C45.0568 80.6307 45.6135 80.3835 46.1702 80.1981C46.5413 80.9398 46.9743 81.6196 47.4073 82.2377C48.7063 84.03 50.3764 85.3898 52.1702 86.4404C53.964 87.4911 55.8197 88.171 57.7372 88.6654C58.665 88.9127 59.6547 89.0363 60.6444 89.1599C61.1392 89.2217 61.5722 89.2217 62.1289 89.2835H63.4898C64.4794 89.2835 65.4073 89.2217 66.397 89.0981C67.3867 88.9745 68.3145 88.8509 69.3042 88.6036C71.2217 88.1092 73.263 87.3057 74.9949 86.0078C76.7269 84.7099 78.1496 83.0411 79.1392 81.2488C79.4485 80.6925 79.6959 80.1363 79.9434 79.58C81.1186 80.3217 82.2939 81.0016 83.6547 81.5578C84.9537 82.1141 86.4382 82.5467 87.9227 82.7939C89.4073 82.9793 91.0155 82.9793 92.5001 82.6703C92.8712 82.6085 93.3042 82.4849 93.6135 82.3613L94.0465 82.2377L94.1702 82.1759H94.232L94.3557 82.1141L94.6032 81.9904C95.3454 81.6814 96.0258 81.3106 96.6444 80.8779C97.9434 80.0127 98.9949 78.962 99.8609 77.7259C100.727 76.4898 101.345 75.13 101.593 73.6467C101.778 72.7814 101.84 71.9161 101.778 71.0509C102.273 71.1127 102.768 71.1745 103.263 71.1127C104.376 71.1127 105.49 70.8654 106.479 70.4946C106.974 70.3092 107.469 70.062 107.964 69.753C108.397 69.4439 108.83 69.0731 109.201 68.7023C109.572 68.3314 109.882 67.837 110.129 67.4043C110.253 67.1571 110.314 66.9099 110.438 66.6627L110.624 65.921C110.562 66.1682 110.438 66.4155 110.314 66.6627Z" fill="#4DBFF7"/>
</g>
</svg>
