<svg width="18" height="82" viewBox="0 0 18 82" fill="none" xmlns="http://www.w3.org/2000/svg">
<path d="M9.0001 0.84436L9.0001 24.7758M9.0001 81.1305L9.0001 57.1991M9.0001 53.3392C6.95267 53.3392 4.9891 52.5258 3.54136 51.0781C2.09361 49.6303 1.28027 47.6668 1.28027 45.6193V36.3555C1.28027 34.3081 2.09361 32.3446 3.54136 30.8968C4.9891 29.4491 6.95267 28.6357 9.0001 28.6357C11.0475 28.6357 13.0111 29.4491 14.4588 30.8968C15.9066 32.3446 16.7199 34.3081 16.7199 36.3555V45.6193C16.7199 46.6331 16.5202 47.637 16.1323 48.5736C15.7443 49.5102 15.1757 50.3612 14.4588 51.0781C13.742 51.7949 12.891 52.3636 11.9543 52.7515C11.0177 53.1395 10.0139 53.3392 9.0001 53.3392ZM9.0001 30.1797C7.36216 30.1797 5.7913 30.8304 4.6331 31.9886C3.47491 33.1468 2.82424 34.7176 2.82424 36.3555V45.6193C2.82424 47.2573 3.47491 48.8281 4.6331 49.9863C5.7913 51.1445 7.36216 51.7952 9.0001 51.7952C10.638 51.7952 12.2089 51.1445 13.3671 49.9863C14.5253 48.8281 15.176 47.2573 15.176 45.6193V36.3555C15.176 34.7176 14.5253 33.1468 13.3671 31.9886C12.2089 30.8304 10.638 30.1797 9.0001 30.1797ZM9.0001 38.6715C8.79535 38.6715 8.599 38.5902 8.45422 38.4454C8.30945 38.3006 8.22811 38.1043 8.22811 37.8995V34.8116C8.22811 34.6068 8.30945 34.4105 8.45422 34.2657C8.599 34.1209 8.79535 34.0396 9.0001 34.0396C9.20484 34.0396 9.4012 34.1209 9.54597 34.2657C9.69075 34.4105 9.77208 34.6068 9.77208 34.8116V37.8995C9.77208 38.1043 9.69075 38.3006 9.54597 38.4454C9.4012 38.5902 9.20484 38.6715 9.0001 38.6715Z" stroke="url(#paint0_linear_27_285)" stroke-width="1.04167"/>
<defs>
<linearGradient id="paint0_linear_27_285" x1="1.28027" y1="24.7758" x2="1.28027" y2="1.23035" gradientUnits="userSpaceOnUse">
<stop stop-color="white"/>
<stop offset="1" stop-color="white" stop-opacity="0"/>
</linearGradient>
</defs>
</svg>
